# xmcd CD database file
# Copyright (C) 1997 Ti Kan
# 
# Track frame offsets:
#     150
#     14097
#     31277
#     43702
#     59920
#     75310
#     90565
#     105650
#     117527
#     132427
# 
# Disc length: 1979 seconds
# 
# Revision: 1
# Processed by: cddbd v1.4b41PL1 Copyright (c) Steve Scherf et al.
# Submitted via: DiscPlay 4.0.3
# 
DISCID=8707b90a
DTITLE=Neal Mccoy - Greatest Hits
DYEAR=1900
DGENRE=
TTITLE0=Now I Pray For Rain
TTITLE1=No Doubt About It
TTITLE2=Wink
TTITLE3=The City Put The Country Back In Me
TTITLE4=For A Change
TTITLE5=They're Playin' Our Song
TTITLE6=If I Was A Drinkin' Man
TTITLE7=You Gotta Love That
TTITLE8=Then You Can Tell Me Goodbye
TTITLE9=The Shake
EXTD=
EXTT0=
EXTT1=
EXTT2=
EXTT3=
EXTT4=
EXTT5=
EXTT6=
EXTT7=
EXTT8=
EXTT9=
PLAYORDER=
